<?xml version="1.0" encoding="UTF-8" standalone="no"?><!DOCTYPE svg PUBLIC "-//W3C//DTD SVG 1.1//EN" "http://www.w3.org/Graphics/SVG/1.1/DTD/svg11.dtd"><!-- Generated by graphviz version 2.40.1 (20161225.0304)
 --><!-- Title: %0 Pages: 1 --><svg xmlns="http://www.w3.org/2000/svg" xmlns:xlink="http://www.w3.org/1999/xlink" width="280pt" height="260pt" viewBox="0.00 0.00 279.97 260.00">
<g id="graph0" class="graph" transform="scale(1 1) rotate(0) translate(4 256)">
<title>%0</title>
<polygon fill="#ffffff" stroke="transparent" points="-4,4 -4,-256 275.974,-256 275.974,4 -4,4"/>
<!-- byte -->
<g id="node1" class="node">
<title>byte</title>
<ellipse fill="none" stroke="#000000" cx="125.6532" cy="-234" rx="27.8286" ry="18"/>
<text text-anchor="middle" x="125.6532" y="-229.8" font-family="Times,serif" font-size="14.00" fill="#000000">byte</text>
</g>
<!-- short -->
<g id="node2" class="node">
<title>short</title>
<ellipse fill="none" stroke="#000000" cx="125.6532" cy="-162" rx="30.1958" ry="18"/>
<text text-anchor="middle" x="125.6532" y="-157.8" font-family="Times,serif" font-size="14.00" fill="#000000">short</text>
</g>
<!-- byte&#45;&gt;short -->
<g id="edge1" class="edge">
<title>byte-&gt;short</title>
<path fill="none" stroke="#000000" d="M125.6532,-215.8314C125.6532,-208.131 125.6532,-198.9743 125.6532,-190.4166"/>
<polygon fill="#000000" stroke="#000000" points="129.1533,-190.4132 125.6532,-180.4133 122.1533,-190.4133 129.1533,-190.4132"/>
</g>
<!-- int -->
<g id="node3" class="node">
<title>int</title>
<ellipse fill="none" stroke="#000000" cx="125.6532" cy="-90" rx="27" ry="18"/>
<text text-anchor="middle" x="125.6532" y="-85.8" font-family="Times,serif" font-size="14.00" fill="#000000">int</text>
</g>
<!-- short&#45;&gt;int -->
<g id="edge2" class="edge">
<title>short-&gt;int</title>
<path fill="none" stroke="#000000" d="M125.6532,-143.8314C125.6532,-136.131 125.6532,-126.9743 125.6532,-118.4166"/>
<polygon fill="#000000" stroke="#000000" points="129.1533,-118.4132 125.6532,-108.4133 122.1533,-118.4133 129.1533,-118.4132"/>
</g>
<!-- long -->
<g id="node4" class="node">
<title>long</title>
<ellipse fill="none" stroke="#000000" cx="125.6532" cy="-18" rx="28.4127" ry="18"/>
<text text-anchor="middle" x="125.6532" y="-13.8" font-family="Times,serif" font-size="14.00" fill="#000000">long</text>
</g>
<!-- int&#45;&gt;long -->
<g id="edge3" class="edge">
<title>int-&gt;long</title>
<path fill="none" stroke="#000000" d="M125.6532,-71.8314C125.6532,-64.131 125.6532,-54.9743 125.6532,-46.4166"/>
<polygon fill="#000000" stroke="#000000" points="129.1533,-46.4132 125.6532,-36.4133 122.1533,-46.4133 129.1533,-46.4132"/>
</g>
<!-- float -->
<g id="node6" class="node">
<title>float</title>
<ellipse fill="none" stroke="#000000" cx="224.6532" cy="-90" rx="28.9696" ry="18"/>
<text text-anchor="middle" x="224.6532" y="-85.8" font-family="Times,serif" font-size="14.00" fill="#000000">float</text>
</g>
<!-- int&#45;&gt;float -->
<g id="edge5" class="edge">
<title>int-&gt;float</title>
<path fill="none" stroke="#000000" d="M152.7235,-90C163.6947,-90 174.6659,-90 185.6372,-90"/>
<polygon fill="#000000" stroke="#000000" points="185.7128,-93.5001 195.7128,-90 185.7127,-86.5001 185.7128,-93.5001"/>
</g>
<!-- double -->
<g id="node7" class="node">
<title>double</title>
<ellipse fill="none" stroke="#000000" cx="234.6532" cy="-18" rx="37.1424" ry="18"/>
<text text-anchor="middle" x="234.6532" y="-13.8" font-family="Times,serif" font-size="14.00" fill="#000000">double</text>
</g>
<!-- int&#45;&gt;double -->
<g id="edge8" class="edge">
<title>int-&gt;double</title>
<path fill="none" stroke="#000000" d="M144.8893,-77.2936C161.3192,-66.4408 185.2423,-50.6384 204.2604,-38.076"/>
<polygon fill="#000000" stroke="#000000" points="206.1938,-40.9935 212.6088,-32.5615 202.3357,-35.1527 206.1938,-40.9935"/>
</g>
<!-- long&#45;&gt;float -->
<g id="edge9" class="edge">
<title>long-&gt;float</title>
<path fill="none" stroke="#000000" d="M144.3471,-31.5955C159.2632,-42.4437 180.374,-57.797 197.2075,-70.0395"/>
<polygon fill="#000000" stroke="#000000" points="195.419,-73.0665 205.565,-76.1177 199.5363,-67.4053 195.419,-73.0665"/>
</g>
<!-- long&#45;&gt;double -->
<g id="edge6" class="edge">
<title>long-&gt;double</title>
<path fill="none" stroke="#000000" d="M154.1806,-18C165.1712,-18 176.1619,-18 187.1525,-18"/>
<polygon fill="#000000" stroke="#000000" points="187.246,-21.5001 197.246,-18 187.246,-14.5001 187.246,-21.5001"/>
</g>
<!-- char -->
<g id="node5" class="node">
<title>char</title>
<ellipse fill="none" stroke="#000000" cx="27.6532" cy="-90" rx="27.8073" ry="18"/>
<text text-anchor="middle" x="27.6532" y="-85.8" font-family="Times,serif" font-size="14.00" fill="#000000">char</text>
</g>
<!-- char&#45;&gt;int -->
<g id="edge4" class="edge">
<title>char-&gt;int</title>
<path fill="none" stroke="#000000" d="M55.5985,-90C66.5631,-90 77.5277,-90 88.4922,-90"/>
<polygon fill="#000000" stroke="#000000" points="88.5618,-93.5001 98.5618,-90 88.5617,-86.5001 88.5618,-93.5001"/>
</g>
<!-- float&#45;&gt;double -->
<g id="edge7" class="edge">
<title>float-&gt;double</title>
<path fill="none" stroke="#000000" d="M227.1766,-71.8314C228.2461,-64.131 229.5179,-54.9743 230.7065,-46.4166"/>
<polygon fill="#000000" stroke="#000000" points="234.1868,-46.7997 232.0958,-36.4133 227.2533,-45.8367 234.1868,-46.7997"/>
</g>
</g>
</svg>
